HIERARCHY
ROOT joint_Root
{
	OFFSET 0.0 0.0 0.0
	CHANNELS 6 Xposition Yposition Zposition Zrotation Xrotation Yrotation 
	JOINT Hips
	{
		OFFSET 4.5925 91.4895 -427.239
		CHANNELS 6 Xposition Yposition Zposition Zrotation Xrotation Yrotation 
		JOINT Spine
		{
			OFFSET 15.7357 0.0 0.0
			CHANNELS 6 Xposition Yposition Zposition Zrotation Xrotation Yrotation 
			JOINT Chest
			{
				OFFSET 8.98455 -0.406207 0.0
				CHANNELS 6 Xposition Yposition Zposition Zrotation Xrotation Yrotation 
				JOINT Neck
				{
					OFFSET 16.3773 0.0 0.0
					CHANNELS 6 Xposition Yposition Zposition Zrotation Xrotation Yrotation 
					JOINT Head
					{
						OFFSET 6.45672 0.0 0.0
						CHANNELS 6 Xposition Yposition Zposition Zrotation Xrotation Yrotation 
						End Site
						{
							OFFSET 0.0 0.0 0.0
						}
					}
				}
				JOINT Shoulder_L
				{
					OFFSET 12.9942 -0.242716 4.98039
					CHANNELS 6 Xposition Yposition Zposition Zrotation Xrotation Yrotation 
					JOINT UpperArm_L
					{
						OFFSET 5.34809 0.0 0.0
						CHANNELS 6 Xposition Yposition Zposition Zrotation Xrotation Yrotation 
						JOINT LowerArm_L
						{
							OFFSET 24.3286 1.87007e-05 0.0
							CHANNELS 6 Xposition Yposition Zposition Zrotation Xrotation Yrotation 
							JOINT Hand_L
							{
								OFFSET 22.2916 0.0 0.0
								CHANNELS 6 Xposition Yposition Zposition Zrotation Xrotation Yrotation 
								End Site
								{
									OFFSET 0.0 0.0 0.0
								}
							}
						}
					}
				}
				JOINT Shoulder_R
				{
					OFFSET 12.9945 -0.242716 -4.98039
					CHANNELS 6 Xposition Yposition Zposition Zrotation Xrotation Yrotation 
					JOINT UpperArm_R
					{
						OFFSET -5.34813 0.0 0.0
						CHANNELS 6 Xposition Yposition Zposition Zrotation Xrotation Yrotation 
						JOINT LowerArm_R
						{
							OFFSET -24.3289 0.000322201 0.0
							CHANNELS 6 Xposition Yposition Zposition Zrotation Xrotation Yrotation 
							JOINT Hand_R
							{
								OFFSET -22.2915 -0.000108084 0.0
								CHANNELS 6 Xposition Yposition Zposition Zrotation Xrotation Yrotation 
								End Site
								{
									OFFSET 0.0 0.0 0.0
								}
							}
						}
					}
				}
			}
		}
		JOINT UpperLeg_L
		{
			OFFSET -2.19248 -6.46944 0.0
			CHANNELS 6 Xposition Yposition Zposition Zrotation Xrotation Yrotation 
			JOINT LowerLeg_L
			{
				OFFSET 39.0811 0.0 -1.23785e-05
				CHANNELS 6 Xposition Yposition Zposition Zrotation Xrotation Yrotation 
				JOINT Foot_L
				{
					OFFSET 40.9854 0.0 -1.26872e-05
					CHANNELS 6 Xposition Yposition Zposition Zrotation Xrotation Yrotation 
					JOINT Toes_L
					{
						OFFSET 11.7543 0.0 0.0
						CHANNELS 6 Xposition Yposition Zposition Zrotation Xrotation Yrotation 
						End Site
						{
							OFFSET 0.0 0.0 0.0
						}
					}
				}
			}
		}
		JOINT UpperLeg_R
		{
			OFFSET -2.19251 6.46944 0.0
			CHANNELS 6 Xposition Yposition Zposition Zrotation Xrotation Yrotation 
			JOINT LowerLeg_R
			{
				OFFSET -39.0811 -0.00228153 -0.0401928
				CHANNELS 6 Xposition Yposition Zposition Zrotation Xrotation Yrotation 
				JOINT Foot_R
				{
					OFFSET -40.9854 0.0 0.0
					CHANNELS 6 Xposition Yposition Zposition Zrotation Xrotation Yrotation 
					JOINT Toes_R
					{
						OFFSET -11.7543 0.0 0.0
						CHANNELS 6 Xposition Yposition Zposition Zrotation Xrotation Yrotation 
						End Site
						{
							OFFSET 0.0 0.0 0.0
						}
					}
				}
			}
		}
	}
}
MOTION
Frames:	4
Frame Time:	0.0333333
0.000000 0.000000 0.000000 0.000000 0.000000 -0.000000 -1.522630 82.394500 -1.293560 86.858600 -7.679990 14.062400 15.735700 0.000005 -0.000001 78.871100 80.318300 -78.312700 8.984550 -0.406207 -0.000000 11.268700 -3.691400 1.480960 16.377300 -0.000001 -0.000001 -2.309480 -0.268105 1.803140 6.456720 -0.000001 -0.000000 -6.341000 4.815860 -1.188360 12.994200 -0.242716 4.980390 -91.559600 5.060540 -72.846700 5.348090 -0.000007 -0.000001 -59.615300 34.744900 -16.525700 24.328600 0.000019 0.000005 9.226220 18.081700 -27.625600 22.291600 -0.000001 0.000005 11.988800 5.214140 2.345100 12.994500 -0.242716 -4.980390 87.063000 11.253800 -75.270600 -5.348130 -0.000001 -0.000004 -58.191300 3.648190 -7.639300 -24.328900 0.000322 -0.000009 -0.344630 -1.858460 -10.398900 -22.291500 -0.000108 -0.000004 3.465520 4.950360 8.373040 -2.192480 -6.469440 -0.000000 -169.239000 -13.147700 -11.425500 39.081100 -0.000007 -0.000012 -0.461612 0.243387 62.200400 40.985400 -0.000006 -0.000013 -0.269695 4.334600 -85.500600 11.754300 -0.000000 0.000003 -0.000256 -0.002277 -16.662800 -2.192510 6.469440 -0.000001 178.600000 12.942200 168.319000 -39.081100 -0.002282 -0.040193 0.068978 -0.036043 61.282200 -40.985400 0.000008 0.000006 9.251130 8.950980 -85.155700 -11.754300 -0.000006 -0.000006 -0.122353 -0.165140 -17.528700
0.000000 0.000000 0.000000 0.000000 0.000000 -0.000000 -2.144490 84.106500 -0.757652 86.790200 -4.267600 13.631700 15.735700 0.000005 -0.000001 79.004100 81.364000 -79.493100 8.984550 -0.406207 -0.000000 9.186090 -3.282580 -0.713667 16.377300 -0.000001 -0.000001 -0.728918 -1.067050 1.660620 6.456720 -0.000001 -0.000000 -4.887760 2.906290 -0.076556 12.994200 -0.242716 4.980390 -91.608100 5.003380 -72.156400 5.348090 -0.000007 -0.000001 -61.507500 31.146700 -15.434900 24.328600 0.000019 0.000005 7.033170 15.804200 -24.364600 22.291600 -0.000001 0.000005 13.648800 5.155020 3.823320 12.994500 -0.242716 -4.980390 87.433500 9.594250 -74.946600 -5.348130 -0.000001 -0.000004 -55.528700 -4.855940 -9.742970 -24.328900 0.000322 -0.000009 -0.146192 -1.344400 -6.187680 -22.291500 -0.000108 -0.000004 2.305830 4.872670 9.918630 -2.192480 -6.469440 -0.000000 -169.316000 -11.308500 -9.786390 39.081100 -0.000007 -0.000012 -0.407862 0.262678 57.217900 40.985400 -0.000006 -0.000013 -0.107614 5.847370 -83.003100 11.754300 -0.000000 0.000003 -0.000221 -0.002014 -16.653300 -2.192510 6.469440 -0.000001 178.934000 14.323600 171.098000 -39.081100 -0.002282 -0.040193 0.070921 -0.045409 56.148600 -40.985400 0.000008 0.000006 8.478400 7.397750 -82.950400 -11.754300 -0.000006 -0.000006 -0.188232 -0.245204 -17.691300
0.000000 0.000000 0.000000 0.000000 0.000000 -0.000000 -2.525470 86.320800 -0.345839 87.162100 -1.449660 12.017500 15.735700 0.000005 -0.000001 78.135300 82.924800 -79.841400 8.984550 -0.406207 -0.000000 6.047340 -2.875880 -3.256860 16.377300 -0.000001 -0.000001 1.779690 -1.717830 1.731270 6.456720 -0.000001 -0.000000 -3.177360 1.098790 1.160240 12.994200 -0.242716 4.980390 -91.396500 4.094050 -71.144900 5.348090 -0.000007 -0.000001 -63.443600 29.053500 -13.333000 24.328600 0.000019 0.000005 4.908480 12.396500 -21.801800 22.291600 -0.000001 0.000005 13.551700 5.174620 3.346940 12.994500 -0.242716 -4.980390 87.879900 7.674870 -74.506700 -5.348130 -0.000001 -0.000004 -50.593000 -14.194300 -14.584000 -24.328900 0.000322 -0.000009 -0.289932 -3.708040 -4.463320 -22.291500 -0.000108 -0.000004 3.573880 4.849620 10.368900 -2.192480 -6.469440 -0.000000 -170.214000 -10.069400 -8.293670 39.081100 -0.000007 -0.000012 -0.321454 0.268950 50.082600 40.985400 -0.000006 -0.000013 -0.157373 6.941180 -79.353000 11.754300 -0.000000 0.000003 -0.000146 -0.001421 -16.631600 -2.192510 6.469440 -0.000001 179.084000 15.303000 173.274000 -39.081100 -0.002282 -0.040193 0.062402 -0.051121 49.165400 -40.985400 0.000008 0.000006 7.681330 6.434390 -79.476700 -11.754300 -0.000006 -0.000006 -0.136992 -0.191280 -18.061500
0.000000 0.000000 0.000000 0.000000 0.000000 -0.000000 -2.572340 88.304200 -0.022769 87.591700 0.620561 10.092900 15.735700 0.000005 -0.000001 75.693600 84.463700 -78.346400 8.984550 -0.406207 -0.000000 2.910760 -2.621140 -5.234000 16.377300 -0.000001 -0.000001 4.349680 -2.091840 1.438500 6.456720 -0.000001 -0.000000 -1.540380 -0.419084 1.884220 12.994200 -0.242716 4.980390 -91.166600 3.219280 -70.067600 5.348090 -0.000007 -0.000001 -64.567700 28.410000 -10.807100 24.328600 0.000019 0.000005 4.798920 12.811500 -20.737600 22.291600 -0.000001 0.000005 11.760900 5.178070 3.263130 12.994500 -0.242716 -4.980390 88.533800 5.434880 -74.879800 -5.348130 -0.000001 -0.000004 -44.336500 -23.534500 -22.521100 -24.328900 0.000322 -0.000009 -0.578432 -7.888480 -4.197180 -22.291500 -0.000108 -0.000004 6.420110 4.922820 8.940010 -2.192480 -6.469440 -0.000000 -171.372000 -9.066820 -6.878560 39.081100 -0.000007 -0.000012 -0.246883 0.266640 42.797300 40.985400 -0.000006 -0.000013 -0.349078 7.344180 -75.679000 11.754300 -0.000000 0.000003 -0.000084 -0.000882 -16.611500 -2.192510 6.469440 -0.000001 178.894000 16.582000 175.041000 -39.081100 -0.002282 -0.040193 0.049797 -0.051302 42.204500 -40.985400 0.000008 0.000006 7.122890 6.583700 -75.815000 -11.754300 -0.000006 -0.000006 -0.033377 -0.082890 -18.590200
